# xmcd CD database file
#
# Track frame offsets:
#	150
#	25367
#	63075
#	70718
#	90083
#
# Disc length: 1369 seconds
#
# Revision: 0
# Processed by: cddbd v1.5.1PL2 Copyright (c) Steve Scherf et al.
# Submitted via: CDex 1.50beta8
#
DISCID=30055705
DTITLE=Blueside - Blueside
DYEAR=2005
DGENRE=Blues
TTITLE0=How blue can you get
TTITLE1=Red house
TTITLE2=Highway blues theme
TTITLE3=Stormy monday
TTITLE4=Mary had a little lamb
EXTD=YEAR: 2005
EXTT0=
EXTT1=
EXTT2=
EXTT3=
EXTT4=
PLAYORDER=
